<svg width="24" height="24" viewBox="0 0 24 24" fill="none" xmlns="http://www.w3.org/2000/svg">
<g clip-path="url(#clip0_6722_4727)">
<path d="M23.4407 12.2245C23.4407 11.2413 23.3609 10.5238 23.1882 9.77966H11.9603V14.2176H18.5508C18.418 15.3205 17.7005 16.9815 16.1059 18.0976L16.0836 18.2462L19.6337 20.9964L19.8796 21.0209C22.1385 18.9347 23.4407 15.8653 23.4407 12.2245Z" fill="#4285F4"/>
<path d="M11.9602 23.9176C15.1891 23.9176 17.8997 22.8545 19.8796 21.0209L16.1059 18.0976C15.0961 18.8018 13.7407 19.2934 11.9602 19.2934C8.79783 19.2934 6.11377 17.2074 5.15698 14.324L5.01673 14.3359L1.32531 17.1927L1.27704 17.3269C3.24357 21.2334 7.28299 23.9176 11.9602 23.9176Z" fill="#34A853"/>
<path d="M5.15698 14.3239C4.90452 13.5798 4.75841 12.7825 4.75841 11.9587C4.75841 11.1349 4.90452 10.3376 5.14369 9.59354L5.13701 9.43507L1.39933 6.53235L1.27704 6.59052C0.466534 8.21162 0.00146484 10.032 0.00146484 11.9587C0.00146484 13.8854 0.466534 15.7058 1.27704 17.3269L5.15698 14.3239Z" fill="#FBBC05"/>
<path d="M11.9602 4.62403C14.2058 4.62403 15.7205 5.59402 16.5843 6.40461L19.9593 3.10928C17.8865 1.1826 15.1891 0 11.9602 0C7.28299 0 3.24357 2.68406 1.27704 6.59057L5.1437 9.59359C6.11377 6.7102 8.79783 4.62403 11.9602 4.62403Z" fill="#EB4335"/>
</g>
<defs>
<clipPath id="clip0_6722_4727">
<rect width="23.4533" height="24" fill="white"/>
</clipPath>
</defs>
</svg>
